<svg xmlns="http://www.w3.org/2000/svg" xmlns:xlink="http://www.w3.org/1999/xlink" viewBox="0 0 458.64 436.96"><defs><style>.a{fill:url(#a);}.b{fill:url(#b);}.c{fill:url(#c);}.d{fill:url(#d);}.e{fill:url(#e);}.f{fill:url(#f);}.g{fill:url(#g);}.h{fill:url(#i);}.i{fill:url(#j);}.j{fill:url(#k);}.k{fill:url(#l);}.l{fill:url(#m);}.m{fill:url(#n);}.n{fill:url(#o);}.o{fill:url(#p);}.p{fill:url(#q);}.q{fill:url(#r);}.r{fill:url(#s);}.s{fill:url(#t);}.t{fill:url(#u);}.u{fill:url(#v);}.v{fill:url(#w);}.w{fill:url(#x);}.x{fill:url(#y);}.y{fill:url(#z);}.z{fill:url(#aa);}.aa{fill:url(#ab);}.ab{fill:url(#ac);}.ac{fill:url(#ad);}.ad{fill:url(#ae);}.ae{fill:url(#af);}.af{fill:url(#ag);}.ag{fill:url(#ah);}.ah{fill:url(#ai);}.ai{fill:url(#aj);}.aj{fill:url(#ak);}.ak{fill:url(#al);}.al{fill:url(#am);}.am{fill:url(#an);}.an{fill:url(#ao);}.ao{fill:url(#ap);}.ap{fill:url(#aq);}.aq{fill:url(#ar);}.ar{fill:url(#as);}.as{fill:url(#at);}.at{fill:url(#au);}.au{fill:url(#av);}.av{fill:url(#aw);}.aw{fill:url(#ax);}.ax{fill:url(#ay);}.ay{fill:url(#az);}.az{fill:url(#ba);}.ba{fill:url(#bb);}.bb{fill:url(#bc);}.bc{fill:url(#bd);}.bd{fill:url(#be);}.be{fill:url(#bf);}.bf{fill:url(#bg);}.bg{fill:url(#bh);}.bh{fill:url(#bi);}.bi{fill:url(#bj);}.bj{fill:url(#bk);}.bk{fill:url(#bl);}.bl{fill:url(#bm);}.bm{fill:url(#bn);}.bn{fill:url(#bo);}.bo{fill:url(#bp);}.bp{fill:url(#bq);}.bq{fill:url(#br);}.br{fill:url(#bs);}.bs{fill:url(#bt);}.bt{fill:url(#bu);}.bu{fill:url(#bv);}.bv{fill:url(#bw);}.bw{fill:url(#bx);}.bx{fill:url(#by);}.by{fill:url(#bz);}.bz{fill:url(#ca);}.ca{fill:url(#cb);}.cb{fill:url(#cc);}.cc{fill:url(#cd);}.cd{fill:url(#ce);}.ce{fill:url(#cf);}.cf{fill:url(#cg);}.cg{fill:url(#ch);}.ch{fill:url(#ci);}.ci{fill:url(#cj);}.cj{fill:url(#ck);}.ck{fill:url(#cl);}.cl{fill:url(#cm);}.cm{fill:url(#cn);}.cn{fill:url(#co);}.co{fill:url(#cp);}.cp{fill:url(#cq);}.cq{fill:url(#cr);}.cr{fill:url(#cs);}.cs{fill:url(#ct);}.ct{fill:url(#cu);}.cu{fill:url(#cv);}.cv{fill:url(#cw);}.cw{fill:url(#cx);}.cx{fill:url(#cy);}.cy{fill:url(#cz);}.cz{fill:url(#da);}.da{fill:url(#db);}.db{fill:url(#dc);}.dc{fill:url(#dd);}.dd{fill:url(#de);}.de{fill:url(#df);}.df{fill:url(#dg);}.dg{fill:url(#dh);}.dh{fill:url(#di);}</style><linearGradient id="a" x1="368.06" y1="-107.86" x2="375.87" y2="344.24" gradientUnits="userSpaceOnUse"><stop offset="0" stop-color="#19222a"/><stop offset="1" stop-color="#2d3841"/></linearGradient><linearGradient id="b" x1="367.89" y1="-107.85" x2="375.7" y2="344.24" xlink:href="#a"/><linearGradient id="c" x1="201.64" y1="-104.98" x2="209.45" y2="347.11" xlink:href="#a"/><linearGradient id="d" x1="424.16" y1="-11.03" x2="431.98" y2="441.07" xlink:href="#a"/><linearGradient id="e" x1="376.28" y1="-108" x2="384.09" y2="344.09" xlink:href="#a"/><linearGradient id="f" x1="365" y1="-107.8" x2="372.81" y2="344.29" xlink:href="#a"/><linearGradient id="g" x1="-11.14" y1="-101.3" x2="-3.33" y2="350.79" xlink:href="#a"/><linearGradient id="i" x1="357.5" y1="-107.67" x2="365.31" y2="344.42" xlink:href="#a"/><linearGradient id="j" x1="364.7" y1="-107.8" x2="372.52" y2="344.29" xlink:href="#a"/><linearGradient id="k" x1="251.26" y1="-105.84" x2="259.07" y2="346.25" xlink:href="#a"/><linearGradient id="l" x1="266.9" y1="-106.11" x2="274.71" y2="345.98" xlink:href="#a"/><linearGradient id="m" x1="292.16" y1="-106.54" x2="299.97" y2="345.55" xlink:href="#a"/><linearGradient id="n" x1="300.88" y1="-106.69" x2="308.69" y2="345.4" xlink:href="#a"/><linearGradient id="o" x1="5.42" y1="-101.59" x2="13.23" y2="350.5" xlink:href="#a"/><linearGradient id="p" x1="180.77" y1="-104.62" x2="188.58" y2="347.47" xlink:href="#a"/><linearGradient id="q" x1="-22.93" y1="-101.1" x2="-15.11" y2="350.99" xlink:href="#a"/><linearGradient id="r" x1="-10.62" y1="-101.31" x2="-2.81" y2="350.78" xlink:href="#a"/><linearGradient id="s" x1="35.78" y1="-102.11" x2="43.59" y2="349.98" xlink:href="#a"/><linearGradient id="t" x1="35.78" y1="-102.11" x2="43.59" y2="349.98" xlink:href="#a"/><linearGradient id="u" x1="64.75" y1="-102.61" x2="72.57" y2="349.48" xlink:href="#a"/><linearGradient id="v" x1="100.48" y1="-103.23" x2="108.29" y2="348.86" xlink:href="#a"/><linearGradient id="w" x1="259.85" y1="-105.99" x2="267.66" y2="346.11" xlink:href="#a"/><linearGradient id="x" x1="285.3" y1="-106.43" x2="293.11" y2="345.67" xlink:href="#a"/><linearGradient id="y" x1="320.1" y1="-107.03" x2="327.91" y2="345.07" xlink:href="#a"/><linearGradient id="z" x1="349.69" y1="-107.54" x2="357.5" y2="344.55" xlink:href="#a"/><linearGradient id="aa" x1="320.3" y1="-107.03" x2="328.12" y2="345.06" xlink:href="#a"/><linearGradient id="ab" x1="366.2" y1="-107.82" x2="374.02" y2="344.27" xlink:href="#a"/><linearGradient id="ac" x1="359.89" y1="-107.71" x2="367.71" y2="344.38" xlink:href="#a"/><linearGradient id="ad" x1="365.66" y1="-107.81" x2="373.47" y2="344.28" xlink:href="#a"/><linearGradient id="ae" x1="387.9" y1="-108.2" x2="395.72" y2="343.89" xlink:href="#a"/><linearGradient id="af" x1="387.7" y1="-108.2" x2="395.52" y2="343.9" xlink:href="#a"/><linearGradient id="ag" x1="126.71" y1="-103.68" x2="134.52" y2="348.41" xlink:href="#a"/><linearGradient id="ah" x1="193.71" y1="-104.84" x2="201.53" y2="347.25" xlink:href="#a"/><linearGradient id="ai" x1="174.7" y1="-104.51" x2="182.52" y2="347.58" xlink:href="#a"/><linearGradient id="aj" x1="181.87" y1="-104.64" x2="189.69" y2="347.45" xlink:href="#a"/><linearGradient id="ak" x1="185.52" y1="-104.7" x2="193.34" y2="347.39" xlink:href="#a"/><linearGradient id="al" x1="252.67" y1="-105.86" x2="260.49" y2="346.23" xlink:href="#a"/><linearGradient id="am" x1="231.06" y1="-105.49" x2="238.87" y2="346.6" xlink:href="#a"/><linearGradient id="an" x1="231.06" y1="-105.49" x2="238.87" y2="346.6" xlink:href="#a"/><linearGradient id="ao" x1="285.52" y1="-106.43" x2="293.33" y2="345.66" xlink:href="#a"/><linearGradient id="ap" x1="278.89" y1="-106.31" x2="286.71" y2="345.78" xlink:href="#a"/><linearGradient id="aq" x1="296.23" y1="-106.61" x2="304.04" y2="345.48" xlink:href="#a"/><linearGradient id="ar" x1="297.44" y1="-106.64" x2="305.25" y2="345.46" xlink:href="#a"/><linearGradient id="as" x1="227.75" y1="-105.43" x2="235.56" y2="346.66" xlink:href="#a"/><linearGradient id="at" x1="227.75" y1="-105.43" x2="235.56" y2="346.66" xlink:href="#a"/><linearGradient id="au" x1="252.67" y1="-105.86" x2="260.49" y2="346.23" xlink:href="#a"/><linearGradient id="av" x1="258.72" y1="-105.97" x2="266.53" y2="346.13" xlink:href="#a"/><linearGradient id="aw" x1="300.88" y1="-106.69" x2="308.69" y2="345.4" xlink:href="#a"/><linearGradient id="ax" x1="310.06" y1="-106.85" x2="317.87" y2="345.24" xlink:href="#a"/><linearGradient id="ay" x1="321.1" y1="-107.04" x2="328.91" y2="345.05" xlink:href="#a"/><linearGradient id="az" x1="321.1" y1="-107.04" x2="328.91" y2="345.05" xlink:href="#a"/><linearGradient id="ba" x1="-26.45" y1="-101.04" x2="-18.64" y2="351.05" xlink:href="#a"/><linearGradient id="bb" x1="21.09" y1="-101.86" x2="28.91" y2="350.23" xlink:href="#a"/><linearGradient id="bc" x1="139.78" y1="-103.91" x2="147.59" y2="348.18" xlink:href="#a"/><linearGradient id="bd" x1="166.75" y1="-104.38" x2="174.56" y2="347.72" xlink:href="#a"/><linearGradient id="be" x1="171.76" y1="-104.46" x2="179.57" y2="347.63" xlink:href="#a"/><linearGradient id="bf" x1="171.76" y1="-104.46" x2="179.57" y2="347.63" xlink:href="#a"/><linearGradient id="bg" x1="131.17" y1="-103.76" x2="138.98" y2="348.33" xlink:href="#a"/><linearGradient id="bh" x1="144.67" y1="-103.99" x2="152.48" y2="348.1" xlink:href="#a"/><linearGradient id="bi" x1="144.67" y1="-103.99" x2="152.48" y2="348.1" xlink:href="#a"/><linearGradient id="bj" x1="350.45" y1="-107.55" x2="358.26" y2="344.54" xlink:href="#a"/><linearGradient id="bk" x1="350.17" y1="-107.55" x2="357.98" y2="344.55" xlink:href="#a"/><linearGradient id="bl" x1="364.75" y1="-107.8" x2="372.56" y2="344.29" xlink:href="#a"/><linearGradient id="bm" x1="54.76" y1="-102.44" x2="62.57" y2="349.65" xlink:href="#a"/><linearGradient id="bn" x1="54.76" y1="-102.44" x2="62.57" y2="349.65" xlink:href="#a"/><linearGradient id="bo" x1="75.45" y1="-102.8" x2="83.27" y2="349.29" xlink:href="#a"/><linearGradient id="bp" x1="126.71" y1="-103.68" x2="134.52" y2="348.41" xlink:href="#a"/><linearGradient id="bq" x1="135.23" y1="-103.83" x2="143.05" y2="348.26" xlink:href="#a"/><linearGradient id="br" x1="375.64" y1="-107.99" x2="383.46" y2="344.1" xlink:href="#a"/><linearGradient id="bs" x1="174.06" y1="-104.5" x2="181.87" y2="347.59" xlink:href="#a"/><linearGradient id="bt" x1="174.06" y1="-104.5" x2="181.87" y2="347.59" xlink:href="#a"/><linearGradient id="bu" x1="227.7" y1="-105.43" x2="235.52" y2="346.66" xlink:href="#a"/><linearGradient id="bv" x1="228.14" y1="-105.44" x2="235.95" y2="346.65" xlink:href="#a"/><linearGradient id="bw" x1="362.31" y1="-107.76" x2="370.12" y2="344.34" xlink:href="#a"/><linearGradient id="bx" x1="362.23" y1="-107.76" x2="370.04" y2="344.34" xlink:href="#a"/><linearGradient id="by" x1="375.34" y1="-107.98" x2="383.16" y2="344.11" xlink:href="#a"/><linearGradient id="bz" x1="355.79" y1="-107.64" x2="363.61" y2="344.45" xlink:href="#a"/><linearGradient id="ca" x1="-35.07" y1="-100.89" x2="-27.25" y2="351.2" xlink:href="#a"/><linearGradient id="cb" x1="-7.09" y1="-101.37" x2="0.73" y2="350.72" xlink:href="#a"/><linearGradient id="cc" x1="382.57" y1="-108.11" x2="390.38" y2="343.99" xlink:href="#a"/><linearGradient id="cd" x1="322.96" y1="-9.28" x2="330.77" y2="442.82" xlink:href="#a"/><linearGradient id="ce" x1="302.97" y1="-106.73" x2="310.78" y2="345.36" xlink:href="#a"/><linearGradient id="cf" x1="337.64" y1="-107.33" x2="345.45" y2="344.76" xlink:href="#a"/><linearGradient id="cg" x1="340.06" y1="-107.37" x2="347.87" y2="344.72" xlink:href="#a"/><linearGradient id="ch" x1="196.28" y1="-104.89" x2="204.09" y2="347.21" xlink:href="#a"/><linearGradient id="ci" x1="236.72" y1="-105.59" x2="244.53" y2="346.51" xlink:href="#a"/><linearGradient id="cj" x1="265.8" y1="-106.09" x2="273.61" y2="346" xlink:href="#a"/><linearGradient id="ck" x1="280.72" y1="-106.35" x2="288.54" y2="345.75" xlink:href="#a"/><linearGradient id="cl" x1="339.39" y1="-107.36" x2="347.21" y2="344.73" xlink:href="#a"/><linearGradient id="cm" x1="-66.72" y1="-100.34" x2="-58.9" y2="351.75" xlink:href="#a"/><linearGradient id="cn" x1="0.48" y1="-101.5" x2="8.3" y2="350.59" xlink:href="#a"/><linearGradient id="co" x1="132.9" y1="-103.79" x2="140.71" y2="348.3" xlink:href="#a"/><linearGradient id="cp" x1="210.62" y1="-105.13" x2="218.43" y2="346.96" xlink:href="#a"/><linearGradient id="cq" x1="150.92" y1="-104.1" x2="158.74" y2="347.99" xlink:href="#a"/><linearGradient id="cr" x1="153.13" y1="-104.14" x2="160.94" y2="347.95" xlink:href="#a"/><linearGradient id="cs" x1="180.13" y1="-104.61" x2="187.94" y2="347.48" xlink:href="#a"/><linearGradient id="ct" x1="309.07" y1="-106.84" x2="316.88" y2="345.26" xlink:href="#a"/><linearGradient id="cu" x1="337.22" y1="-107.32" x2="345.04" y2="344.77" xlink:href="#a"/><linearGradient id="cv" x1="13.82" y1="-101.73" x2="21.63" y2="350.36" xlink:href="#a"/><linearGradient id="cw" x1="41.7" y1="-102.22" x2="49.51" y2="349.88" xlink:href="#a"/><linearGradient id="cx" x1="78.65" y1="-102.85" x2="86.46" y2="349.24" xlink:href="#a"/><linearGradient id="cy" x1="95.69" y1="-103.15" x2="103.51" y2="348.94" xlink:href="#a"/><linearGradient id="cz" x1="174.77" y1="-104.52" x2="182.58" y2="347.58" xlink:href="#a"/><linearGradient id="da" x1="109.21" y1="-103.38" x2="117.02" y2="348.71" xlink:href="#a"/><linearGradient id="db" x1="146.66" y1="-104.03" x2="154.47" y2="348.06" xlink:href="#a"/><linearGradient id="dc" x1="200.59" y1="-104.96" x2="208.41" y2="347.13" xlink:href="#a"/><linearGradient id="dd" x1="208.62" y1="-105.1" x2="216.43" y2="346.99" xlink:href="#a"/><linearGradient id="de" x1="201.46" y1="-104.98" x2="209.28" y2="347.12" xlink:href="#a"/><linearGradient id="df" x1="254.82" y1="-105.9" x2="262.63" y2="346.19" xlink:href="#a"/><linearGradient id="dg" x1="230.98" y1="-105.49" x2="238.79" y2="346.61" xlink:href="#a"/><linearGradient id="dh" x1="335.97" y1="-107.3" x2="343.78" y2="344.79" xlink:href="#a"/><linearGradient id="di" x1="422.91" y1="-11" x2="430.72" y2="441.09" xlink:href="#a"/></defs><title>bg</title><path class="a" d="M397-49.49l-56-31L356-94l41,30.15v-.59l-40.89-30a.23.23,0,0,0-.29,0l-15.5,13.88a.23.23,0,0,0-.08.2.23.23,0,0,0,.12.18L397-48.95Z" transform="translate(61.43 96.74)"/><path class="b" d="M396.75-7.11,341.39-79.67,397-48.95v-.54L340.64-80.62a.24.24,0,0,0-.29.05.23.23,0,0,0,0,.3L396.75-6.34Z" transform="translate(61.43 96.74)"/><path class="c" d="M168.26,339.31l75.39-34L251,339.73h.48L244,304.93a.22.22,0,0,0-.12-.16.23.23,0,0,0-.2,0L167.13,339.3Z" transform="translate(61.43 96.74)"/><polygon class="d" points="456.5 421.15 407.04 436.95 408.56 436.96 456.5 421.64 456.5 421.15"/><path class="e" d="M397.05-64.43,356.71-94.08l40.5-1.34v-.47L356-94.53a.25.25,0,0,0-.22.17.24.24,0,0,0,.09.26L397-63.84Z" transform="translate(61.43 96.74)"/><path class="f" d="M396.18,104.51l-54.58-3.22,44.1-26.74,10.6,8.25v-.59l-10.44-8.13a.23.23,0,0,0-.26,0l-44.89,27.22a.25.25,0,0,0-.11.26.25.25,0,0,0,.22.18L396.18,105Z" transform="translate(61.43 96.74)"/><path class="g" d="M-8.91,338.4l9-15.33L1.9,338.46h.47L.47,322.32a.26.26,0,0,0-.19-.21.24.24,0,0,0-.25.12L-9.45,338.4Z" transform="translate(61.43 96.74)"/><polygon class="d" points="456.5 421.15 407.04 436.95 408.56 436.96 456.5 421.64 456.5 421.15"/><path class="h" d="M395.08,321.86,343.22,309a.24.24,0,0,0-.28.17l-7.85,31h.48l7.77-30.67,51.73,12.85Z" transform="translate(61.43 96.74)"/><path class="i" d="M395.62,214.43l-28.33,16.26L345.9,225l49.77-19.06v-.5L345.05,224.8a.24.24,0,0,0-.15.23.23.23,0,0,0,.18.21l22.19,5.93h.06a.2.2,0,0,0,.11,0L395.62,215Z" transform="translate(61.43 96.74)"/><path class="j" d="M251.52,339.73l-7.39-34.39,28.62,10.16-12.36,24.28h.52l12.38-24.31a.25.25,0,0,0,0-.19.24.24,0,0,0-.14-.14l-29.27-10.38a.24.24,0,0,0-.23,0,.25.25,0,0,0-.07.23l7.45,34.7Z" transform="translate(61.43 96.74)"/><path class="k" d="M260.91,339.78l12.19-23.94,15.16,24.08h.56l-15.54-24.68a.24.24,0,0,0-.21-.11.22.22,0,0,0-.2.13l-12.48,24.52Z" transform="translate(61.43 96.74)"/><path class="l" d="M288.26,339.92h.56l-15.12-24,51.67,24.19h1.12l-53.31-25a.25.25,0,0,0-.28.06.26.26,0,0,0,0,.28Z" transform="translate(61.43 96.74)"/><path class="m" d="M273,315.58l52.39,24.53h1.12L274,315.52l68.89-6-7.77,30.69h.48l7.82-30.89a.22.22,0,0,0-.05-.21.25.25,0,0,0-.2-.09l-70.08,6.16a.24.24,0,0,0-.08.45Z" transform="translate(61.43 96.74)"/><path class="n" d="M2.37,338.46.53,322.81,24.9,338.57h.87L.36,322.15a.23.23,0,0,0-.25,0,.22.22,0,0,0-.11.22l1.9,16.09Z" transform="translate(61.43 96.74)"/><path class="o" d="M158,180.33l-.12,0a.28.28,0,0,1-.11-.15L155.4,168.5a.23.23,0,0,1,0-.18.27.27,0,0,1,.17-.1l59.59-6.9a.23.23,0,0,1,.26.18.23.23,0,0,1-.16.27l-57.19,18.55Zm-2.13-11.67,2.31,11.14,54.69-17.74Z" transform="translate(61.43 96.74)"/><path class="p" d="M-30.94,338.29l3.07-33.59L-.08,322.42l-9.37,16h.54L.44,322.46a.23.23,0,0,0-.08-.31l-28.3-18.06a.24.24,0,0,0-.23,0,.26.26,0,0,0-.13.19l-3.11,34Z" transform="translate(61.43 96.74)"/><path class="q" d="M.23,322.58a.19.19,0,0,1-.12,0l-28.3-18.05a.23.23,0,0,1-.11-.19.25.25,0,0,1,.1-.2l48.32-34a.24.24,0,0,1,.28,0,.23.23,0,0,1,.07.27l-20,52a.24.24,0,0,1-.14.14Zm-27.87-18.3L.12,322l19.64-51Z" transform="translate(61.43 96.74)"/><path class="r" d="M86,324h0L.23,322.58a.23.23,0,0,1-.19-.1.25.25,0,0,1,0-.22l20-52a.25.25,0,0,1,.16-.14.23.23,0,0,1,.21,0l65.77,53.37a.22.22,0,0,1,.07.26A.22.22,0,0,1,86,324ZM.57,322.12l84.78,1.35-65-52.74Z" transform="translate(61.43 96.74)"/><path class="s" d="M24.9,338.57h.87l-24.72-16,84.08,1.34L58.25,338.74h1l26.92-14.83a.23.23,0,0,0-.11-.44L.24,322.11h0a.24.24,0,0,0-.23.17.23.23,0,0,0,.1.26Z" transform="translate(61.43 96.74)"/><path class="t" d="M59.21,338.75l26.15-14.4-8.91,14.49H77l9.22-15a.24.24,0,0,0,0-.29.22.22,0,0,0-.28,0L58.25,338.74Z" transform="translate(61.43 96.74)"/><path class="u" d="M77,338.84,86.13,324l52,15.16h1.7L86.09,323.49a.22.22,0,0,0-.27.1l-9.37,15.25Z" transform="translate(61.43 96.74)"/><path class="v" d="M314.4,201.6a.15.15,0,0,1-.09,0l-99.17-39.81a.22.22,0,0,1-.14-.18.23.23,0,0,1,.08-.22L265.29,120a.24.24,0,0,1,.18,0,.25.25,0,0,1,.17.11l49,81.2a.24.24,0,0,1,0,.27A.27.27,0,0,1,314.4,201.6Zm-98.72-40.12,98.15,39.41-48.46-80.37Z" transform="translate(61.43 96.74)"/><path class="w" d="M314.4,201.6a.23.23,0,0,1-.2-.11l-49-81.2a.25.25,0,0,1,0-.19.23.23,0,0,1,.13-.14l41.14-18.4a.22.22,0,0,1,.21,0,.25.25,0,0,1,.12.18l7.82,99.6a.23.23,0,0,1-.16.24Zm-48.63-81.32,48.32,80.12-7.72-98.28Z" transform="translate(61.43 96.74)"/><path class="x" d="M314.4,201.6h0a.24.24,0,0,1-.22-.21l-7.82-99.6a.25.25,0,0,1,.06-.18.26.26,0,0,1,.17-.07l34.26-.29a.33.33,0,0,1,.19.09.24.24,0,0,1,0,.2l-26.44,99.89A.23.23,0,0,1,314.4,201.6ZM306.83,102l7.69,98,26-98.25Z" transform="translate(61.43 96.74)"/><path class="y" d="M395.67,205.42l-50.49,19.33L315,201.54l80.73-8.65v-.48l-81.37,8.72a.25.25,0,0,0-.2.17.25.25,0,0,0,.08.25L345,225.2a.3.3,0,0,0,.15.05h.08l50.45-19.32Z" transform="translate(61.43 96.74)"/><path class="z" d="M306.57,102a.23.23,0,0,1-.21-.15.23.23,0,0,1,.05-.26L340.52,69a.27.27,0,0,1,.26,0,.26.26,0,0,1,.14.22l.15,32.33a.24.24,0,0,1-.24.24l-34.25.29ZM340.45,69.7l-33.29,31.83,33.43-.28Z" transform="translate(61.43 96.74)"/><path class="aa" d="M396.5,41.87,340.92,68.78l-.16-148.5,56,73.38v-.77l-56-73.45a.24.24,0,0,0-.26-.08.25.25,0,0,0-.16.23l.16,149.56a.23.23,0,0,0,.11.2.28.28,0,0,0,.13,0,.18.18,0,0,0,.1,0l55.71-27Z" transform="translate(61.43 96.74)"/><path class="ab" d="M340.83,101.72a.2.2,0,0,1-.11,0,.22.22,0,0,1-.12-.21l-.15-32.33a.21.21,0,0,1,.08-.17.21.21,0,0,1,.18-.06l45,5.11a.25.25,0,0,1,.21.18.24.24,0,0,1-.11.25L341,101.68A.19.19,0,0,1,340.83,101.72Zm.09-32.31.14,31.66L385,74.42Z" transform="translate(61.43 96.74)"/><path class="ac" d="M396.41,61.2,385.62,74l-44.1-5,55-26.61v-.53L340.58,68.94a.23.23,0,0,0-.12.25.22.22,0,0,0,.2.19l45,5.12h0a.25.25,0,0,0,.18-.08l10.5-12.49Z" transform="translate(61.43 96.74)"/><path class="ad" d="M396.31,79.27l-10.22-5.08L396.4,61.93V61.2L385.54,74.11a.21.21,0,0,0-.05.2.22.22,0,0,0,.12.16l10.7,5.32Z" transform="translate(61.43 96.74)"/><path class="ae" d="M396.3,82.21l-8.59-6.69,8.6,4.27v-.52l-10.49-5.22a.24.24,0,0,0-.3.09.23.23,0,0,0,.05.31L396.3,82.8Z" transform="translate(61.43 96.74)"/><path class="af" d="M86,323.94l52.12,15.21h1.7L86.65,323.65l94.25-48.51-22.77,64.11h.5l22.91-64.53a.21.21,0,0,0-.06-.25.23.23,0,0,0-.27,0L85.91,323.5a.25.25,0,0,0-.12.24A.23.23,0,0,0,86,323.94Z" transform="translate(61.43 96.74)"/><path class="ag" d="M158.63,339.26,181.46,275l61.8,30L167.13,339.3h1.12l75.66-34.12a.23.23,0,0,0,0-.42l-62.5-30.33a.25.25,0,0,0-.19,0,.2.2,0,0,0-.13.14l-23,64.67Z" transform="translate(61.43 96.74)"/><path class="ah" d="M185.4,200.94a.23.23,0,0,1-.14,0L157.9,180.29a.23.23,0,0,1-.06-.3.23.23,0,0,1,.28-.11l43.44,15.81a.23.23,0,0,1,.15.22.23.23,0,0,1-.17.22l-16.07,4.8Zm-26-20.08,26,19.59,15.28-4.57Z" transform="translate(61.43 96.74)"/><path class="ai" d="M201.47,196.14h-.08L158,180.32a.23.23,0,0,1-.15-.22.22.22,0,0,1,.16-.22l57.19-18.55a.22.22,0,0,1,.24.06.25.25,0,0,1,0,.25L201.69,196A.23.23,0,0,1,201.47,196.14Zm-42.71-16,42.58,15.5,13.49-33.68Z" transform="translate(61.43 96.74)"/><path class="aj" d="M181.32,274.89h0a.24.24,0,0,1-.2-.25l4.08-73.94a.23.23,0,0,1,.17-.22l16.07-4.8a.24.24,0,0,1,.23.06.22.22,0,0,1,.06.22l-20.15,78.75A.23.23,0,0,1,181.32,274.89Zm4.31-74-3.94,71.39,19.45-76Z" transform="translate(61.43 96.74)"/><path class="ak" d="M314.4,201.6h0l-112.93-5.46a.21.21,0,0,1-.18-.11.22.22,0,0,1,0-.21L215,161.46a.27.27,0,0,1,.13-.13.28.28,0,0,1,.18,0l99.16,39.82a.24.24,0,0,1,.15.27A.23.23,0,0,1,314.4,201.6Zm-112.58-5.91L313,201.06l-97.66-39.2Z" transform="translate(61.43 96.74)"/><path class="al" d="M215.23,161.79l-.09,0a.22.22,0,0,1-.14-.19L203.42,72a.23.23,0,0,1,.11-.23.26.26,0,0,1,.27,0L265.58,120a.23.23,0,0,1,0,.36l-50.2,41.38A.22.22,0,0,1,215.23,161.79ZM204,72.48l11.45,88.62,49.65-40.92Z" transform="translate(61.43 96.74)"/><path class="am" d="M265.43,120.41a.24.24,0,0,1-.14,0L203.51,72.12a.22.22,0,0,1-.09-.21.23.23,0,0,1,.13-.18l53.83-24.15a.22.22,0,0,1,.21,0,.24.24,0,0,1,.12.18l8,72.38a.25.25,0,0,1-.12.23A.27.27,0,0,1,265.43,120.41ZM204.1,72l61,47.65-7.87-71.5Z" transform="translate(61.43 96.74)"/><path class="an" d="M257.47,48h0a.24.24,0,0,1-.19-.17L231.56-58.82a.2.2,0,0,1,0-.18.23.23,0,0,1,.15-.1L340.48-80.64a.24.24,0,0,1,.24.09.24.24,0,0,1,0,.26L257.67,47.92A.24.24,0,0,1,257.47,48ZM232.07-58.69l25.5,105.9L340-80.08Z" transform="translate(61.43 96.74)"/><path class="ao" d="M265.43,120.41a.15.15,0,0,1-.11,0,.21.21,0,0,1-.12-.17l-8-72.38a.23.23,0,0,1,.14-.24.25.25,0,0,1,.27.05l49.1,54a.21.21,0,0,1,.05.2.23.23,0,0,1-.13.17l-41.14,18.39A.17.17,0,0,1,265.43,120.41Zm-7.65-71.93,7.85,71.35,40.55-18.14Z" transform="translate(61.43 96.74)"/><path class="ap" d="M306.57,102h0a.21.21,0,0,1-.17-.08L257.3,48a.24.24,0,0,1,.23-.39l83.22,21.36a.23.23,0,0,1,.16.17.22.22,0,0,1-.06.23l-34.11,32.62A.28.28,0,0,1,306.57,102Zm-48.4-53.8,48.42,53.23,33.63-32.17Z" transform="translate(61.43 96.74)"/><path class="aq" d="M340.69,69.38h-.06L257.41,48a.23.23,0,0,1-.13-.36l83.05-128.2a.22.22,0,0,1,.26-.1.24.24,0,0,1,.17.23l.16,149.56a.25.25,0,0,1-.09.19A.18.18,0,0,1,340.69,69.38ZM257.85,47.65l82.6,21.2-.16-148.47Z" transform="translate(61.43 96.74)"/><path class="ar" d="M181.32,274.89a.28.28,0,0,1-.17-.07.3.3,0,0,1-.06-.22l20.16-78.75a.21.21,0,0,1,.14-.16.24.24,0,0,1,.22,0l85.49,59a.24.24,0,0,1,.1.25.25.25,0,0,1-.19.18l-105.64,19.7Zm20.3-78.6-20,78.07,104.73-19.53Z" transform="translate(61.43 96.74)"/><path class="as" d="M243.81,305.21a.2.2,0,0,1-.1,0l-62.49-30.32a.26.26,0,0,1-.13-.25.23.23,0,0,1,.19-.2l105.64-19.69a.23.23,0,0,1,.25.11.23.23,0,0,1,0,.27l-43.15,50A.21.21,0,0,1,243.81,305.21Zm-61.74-30.45,61.69,29.93,42.59-49.38Z" transform="translate(61.43 96.74)"/><path class="at" d="M287,255.19a.23.23,0,0,1-.14,0L201.34,196.1a.25.25,0,0,1-.09-.27.26.26,0,0,1,.24-.16l112.92,5.46a.25.25,0,0,1,.19.12.24.24,0,0,1,0,.22l-27.43,53.59a.26.26,0,0,1-.16.13Zm-84.69-59,84.6,58.43,27.14-53Z" transform="translate(61.43 96.74)"/><path class="au" d="M273.08,315.6l-.08,0L243.74,305.2a.22.22,0,0,1-.15-.16.23.23,0,0,1,0-.21l43.15-50a.23.23,0,0,1,.28-.05.24.24,0,0,1,.13.26l-13.89,60.41a.26.26,0,0,1-.12.15A.2.2,0,0,1,273.08,315.6Zm-28.86-10.73,28.69,10.18,13.62-59.22Z" transform="translate(61.43 96.74)"/><path class="av" d="M273.08,315.6a.25.25,0,0,1-.18-.08.23.23,0,0,1,0-.21l13.89-60.4a.23.23,0,0,1,.39-.12L343.33,309a.25.25,0,0,1,.06.25.24.24,0,0,1-.2.15L273.1,315.6Zm14-60.18L273.38,315.1,342.63,309Z" transform="translate(61.43 96.74)"/><path class="aw" d="M287,255.19a.23.23,0,0,1-.17-.07.23.23,0,0,1,0-.27l27.43-53.59a.22.22,0,0,1,.16-.12.22.22,0,0,1,.19,0l30.74,23.65a.24.24,0,0,1,.09.21.22.22,0,0,1-.12.18l-58.18,29.95Zm27.51-53.47-27,52.7L344.7,225Z" transform="translate(61.43 96.74)"/><path class="ax" d="M343.16,309.44a.25.25,0,0,1-.16-.06l-56.2-54.25a.24.24,0,0,1-.06-.23.25.25,0,0,1,.16-.17l80.36-24a.24.24,0,0,1,.23.06.22.22,0,0,1,.06.23l-24.16,78.27a.23.23,0,0,1-.17.16Zm-55.74-54.37,55.63,53.7L367,231.3Z" transform="translate(61.43 96.74)"/><path class="ay" d="M287,255.19a.23.23,0,0,1-.11-.44L345,224.81a.2.2,0,0,1,.17,0l22.19,5.93a.23.23,0,0,1,.17.22.24.24,0,0,1-.17.23l-80.36,24Zm58.19-29.92L289.32,254l77.15-23Z" transform="translate(61.43 96.74)"/><path class="az" d="M-60.06,285.06a.25.25,0,0,1-.22-.16.23.23,0,0,1,.1-.28l66.55-39a.28.28,0,0,1,.18,0,.24.24,0,0,1,.14.12l13.77,24.49a.22.22,0,0,1,0,.21.21.21,0,0,1-.17.13L-60,285.05ZM6.4,246.17l-65.2,38.19,78.68-14.19Z" transform="translate(61.43 96.74)"/><path class="ba" d="M20.25,270.58h0a.22.22,0,0,1-.18-.12L6.28,246a.24.24,0,0,1,0-.22.23.23,0,0,1,.16-.13l41.09-8.16a.23.23,0,0,1,.22.38L20.43,270.49A.21.21,0,0,1,20.25,270.58ZM6.85,246l13.44,23.91L47,238.05Z" transform="translate(61.43 96.74)"/><path class="bb" d="M136.51,105.56h-.06a.22.22,0,0,1-.16-.28l12.9-49.72a.23.23,0,0,1,.29-.16.24.24,0,0,1,.17.28l-12.91,49.71A.23.23,0,0,1,136.51,105.56Z" transform="translate(61.43 96.74)"/><path class="bc" d="M136.51,105.56a.3.3,0,0,1-.15,0,.22.22,0,0,1-.07-.24l12.9-49.72a.26.26,0,0,1,.11-.14.25.25,0,0,1,.19,0l54.23,16.32a.23.23,0,0,1,.16.21.23.23,0,0,1-.12.23l-67.14,33.38A.23.23,0,0,1,136.51,105.56Zm13.07-49.65-12.71,49L203,72Z" transform="translate(61.43 96.74)"/><path class="bd" d="M155.63,168.69a.24.24,0,0,1-.22-.16l-19.12-63.14a.23.23,0,0,1,.09-.26.23.23,0,0,1,.27,0l78.72,56.23a.27.27,0,0,1,.09.25.25.25,0,0,1-.2.17l-59.6,6.91Zm-18.69-62.77L155.8,168.2l58.8-6.81Z" transform="translate(61.43 96.74)"/><path class="be" d="M215.23,161.79a.24.24,0,0,1-.14,0l-78.71-56.22a.23.23,0,0,1-.1-.21.24.24,0,0,1,.13-.2l67.14-33.38a.22.22,0,0,1,.21,0,.23.23,0,0,1,.12.18l11.58,89.61a.24.24,0,0,1-.11.23A.28.28,0,0,1,215.23,161.79ZM137,105.36l78,55.69L203.46,72.3Z" transform="translate(61.43 96.74)"/><path class="bf" d="M114.67,212.91a.23.23,0,0,1-.17-.08.22.22,0,0,1,0-.31l41-44.22a.24.24,0,0,1,.24-.07.23.23,0,0,1,.16.18l2.41,11.64a.23.23,0,0,1-.09.24l-43.37,32.57A.24.24,0,0,1,114.67,212.91Zm40.83-44-38.88,42L157.78,180Z" transform="translate(61.43 96.74)"/><path class="bg" d="M114.67,212.91a.23.23,0,0,1-.21-.14.22.22,0,0,1,.07-.28l43.37-32.58a.24.24,0,0,1,.28,0l27.36,20.61a.23.23,0,0,1,.09.24.23.23,0,0,1-.19.18l-70.73,12ZM158,180.39l-42.46,31.89,69.25-11.71Z" transform="translate(61.43 96.74)"/><path class="bh" d="M181.32,274.89a.25.25,0,0,1-.16-.06l-66.65-62a.24.24,0,0,1-.06-.24.23.23,0,0,1,.18-.17l70.73-12a.24.24,0,0,1,.2.05.27.27,0,0,1,.08.19l-4.08,74a.24.24,0,0,1-.15.2Zm-66.14-62.06,65.94,61.31,4-73.15Z" transform="translate(61.43 96.74)"/><path class="bi" d="M396,149.76l-81.17,51.09,26.21-99,55.09,23.28v-.51l-55.16-23.3a.21.21,0,0,0-.19,0,.27.27,0,0,0-.13.15l-26.43,99.89a.25.25,0,0,0,.09.25.23.23,0,0,0,.14,0,.27.27,0,0,0,.12,0L396,150.31Z" transform="translate(61.43 96.74)"/><path class="bj" d="M395.74,192.41,315.38,201,396,150.31v-.55l-81.68,51.41a.24.24,0,0,0,.13.43h0l81.31-8.71Z" transform="translate(61.43 96.74)"/><path class="bk" d="M396.08,124.57l-53.9-22.77,54,3.18v-.47l-55.34-3.26a.23.23,0,0,0-.24.18.24.24,0,0,0,.14.27l55.34,23.38Z" transform="translate(61.43 96.74)"/><path class="bl" d="M20.25,270.58a.26.26,0,0,1-.19-.1.24.24,0,0,1,0-.29L47.4,237.54a.21.21,0,0,1,.17-.09l54-.19h0a.23.23,0,0,1,.23.19.24.24,0,0,1-.14.26L20.34,270.56Zm27.44-32.66L21,269.77l79.33-32Z" transform="translate(61.43 96.74)"/><path class="bm" d="M86,324a.24.24,0,0,1-.15-.06L20.1,270.53a.27.27,0,0,1-.08-.22.24.24,0,0,1,.14-.18l81.33-32.85a.26.26,0,0,1,.24,0,.23.23,0,0,1,.08.23L86.25,323.75a.22.22,0,0,1-.15.18ZM20.71,270.41l65.15,52.87,15.42-85.41Z" transform="translate(61.43 96.74)"/><path class="bn" d="M47.57,237.92a.24.24,0,0,1-.23-.19.24.24,0,0,1,.15-.26l67.1-25a.23.23,0,0,1,.26.06.25.25,0,0,1,0,.26l-13.09,24.83a.24.24,0,0,1-.21.12l-54,.19Zm66.61-24.81L48.89,237.45l52.55-.19Z" transform="translate(61.43 96.74)"/><path class="bo" d="M86,324a.24.24,0,0,1-.14-.05.23.23,0,0,1-.09-.23l15.56-86.21a.22.22,0,0,1,.12-.17.26.26,0,0,1,.21,0l79.74,37.16a.24.24,0,0,1,.14.21.23.23,0,0,1-.13.21l-95.3,49.06A.23.23,0,0,1,86,324Zm15.74-86.11L86.34,323.29l94.45-48.62Z" transform="translate(61.43 96.74)"/><path class="bp" d="M181.32,274.89l-.1,0-79.74-37.16a.28.28,0,0,1-.12-.14.22.22,0,0,1,0-.18l13.08-24.82a.27.27,0,0,1,.17-.13.24.24,0,0,1,.2.06l66.65,62a.24.24,0,0,1,0,.31A.26.26,0,0,1,181.32,274.89Zm-79.41-37.5,78.16,36.42-65.33-60.75Z" transform="translate(61.43 96.74)"/><path class="bq" d="M395.49,241.18,367.88,230.9,395.62,215v-.55l-28.41,16.31a.25.25,0,0,0-.12.22.24.24,0,0,0,.16.2l28.23,10.52Z" transform="translate(61.43 96.74)"/><path class="br" d="M149.42,55.85a.24.24,0,0,1-.2-.11.23.23,0,0,1,.07-.32l54.19-36.24a.23.23,0,0,1,.33.06.24.24,0,0,1-.07.33L149.55,55.81A.22.22,0,0,1,149.42,55.85Z" transform="translate(61.43 96.74)"/><path class="bs" d="M203.65,72.17h-.07L149.35,55.84a.22.22,0,0,1-.16-.19.21.21,0,0,1,.1-.23l54.19-36.24a.23.23,0,0,1,.24,0,.22.22,0,0,1,.12.21l0,52.57a.26.26,0,0,1-.1.19A.23.23,0,0,1,203.65,72.17ZM150,55.53l53.46,16.09,0-51.81Z" transform="translate(61.43 96.74)"/><path class="bt" d="M203.65,72.17a.31.31,0,0,1-.13,0,.26.26,0,0,1-.1-.2l0-52.57a.23.23,0,0,1,.11-.2.24.24,0,0,1,.23,0l53.86,28.42a.24.24,0,0,1,0,.43L203.75,72.15A.18.18,0,0,1,203.65,72.17Zm.2-52.41,0,51.82,53.05-23.81Z" transform="translate(61.43 96.74)"/><path class="bu" d="M257.47,48a.23.23,0,0,1-.11,0L203.5,19.58a.24.24,0,0,1-.11-.29l28.17-78.24a.25.25,0,0,1,.24-.16.23.23,0,0,1,.21.18L257.7,47.74a.24.24,0,0,1-.08.24A.3.3,0,0,1,257.47,48ZM203.9,19.26l53.22,28.08L231.74-58.06Z" transform="translate(61.43 96.74)"/><path class="bv" d="M395.32,273.72l-51.73,34.92,23.83-77.2,27.93,35.95v-.76L367.51,230.8a.24.24,0,0,0-.23-.09.26.26,0,0,0-.18.17l-24.16,78.26a.24.24,0,0,0,.09.26.2.2,0,0,0,.13,0,.23.23,0,0,0,.14,0l52-35.12Z" transform="translate(61.43 96.74)"/><path class="bw" d="M395.08,321.86l-51.35-12.75,51.59-34.83v-.56L343,309a.28.28,0,0,0-.1.24.27.27,0,0,0,.18.19l52,12.9Z" transform="translate(61.43 96.74)"/><path class="bx" d="M395.36,266.63,368,231.45l27.46,10.23v-.5l-28.08-10.46a.24.24,0,0,0-.27.09.24.24,0,0,0,0,.28l28.21,36.3Z" transform="translate(61.43 96.74)"/><path class="by" d="M356-96.74a2.45,2.45,0,0,0-2.46,2.44A2.45,2.45,0,0,0,356-91.84a2.45,2.45,0,0,0,2.46-2.44A2.45,2.45,0,0,0,356-96.74Z" transform="translate(61.43 96.74)"/><path class="bz" d="M-28.06,302.78a1.52,1.52,0,0,0-1.52,1.5,1.51,1.51,0,0,0,1.51,1.52,1.51,1.51,0,0,0,1.51-1.5A1.5,1.5,0,0,0-28.06,302.78Z" transform="translate(61.43 96.74)"/><path class="ca" d="M.25,320.25a2.1,2.1,0,0,0,0,4.19,2.1,2.1,0,1,0,0-4.19Z" transform="translate(61.43 96.74)"/><path class="cb" d="M385.73,72.45a1.82,1.82,0,1,0,1.8,1.82A1.83,1.83,0,0,0,385.73,72.45Z" transform="translate(61.43 96.74)"/><circle class="cc" cx="326.87" cy="216.91" r="3.11"/><path class="cd" d="M307.9,101.78a1.32,1.32,0,0,0-1.32-1.34,1.33,1.33,0,1,0,0,2.66A1.32,1.32,0,0,0,307.9,101.78Z" transform="translate(61.43 96.74)"/><path class="ce" d="M340.67,72.21a3.06,3.06,0,1,0-3.05-3.08A3.06,3.06,0,0,0,340.67,72.21Z" transform="translate(61.43 96.74)"/><path class="cf" d="M342.44-80.4a1.93,1.93,0,0,0-1.91-1.93,1.92,1.92,0,0,0-1.92,1.91,1.92,1.92,0,0,0,1.9,1.92A1.92,1.92,0,0,0,342.44-80.4Z" transform="translate(61.43 96.74)"/><path class="cg" d="M201.49,193.14a2.77,2.77,0,1,0,2.75,2.78A2.76,2.76,0,0,0,201.49,193.14Z" transform="translate(61.43 96.74)"/><path class="ch" d="M243.83,302.6a2.38,2.38,0,1,0,2.36,2.39A2.37,2.37,0,0,0,243.83,302.6Z" transform="translate(61.43 96.74)"/><path class="ci" d="M273.1,312.28a3.09,3.09,0,1,0,3.06,3.1A3.08,3.08,0,0,0,273.1,312.28Z" transform="translate(61.43 96.74)"/><path class="cj" d="M287,253.23a1.73,1.73,0,1,0,0,3.45,1.73,1.73,0,0,0,0-3.45Z" transform="translate(61.43 96.74)"/><path class="ck" d="M345.15,221.68a3.34,3.34,0,1,0,3.33,3.35A3.33,3.33,0,0,0,345.15,221.68Z" transform="translate(61.43 96.74)"/><path class="cl" d="M-60,283.45a1.36,1.36,0,0,0-1.38,1.36,1.36,1.36,0,0,0,1.36,1.38,1.36,1.36,0,0,0,1.38-1.36A1.37,1.37,0,0,0-60,283.45Z" transform="translate(61.43 96.74)"/><path class="cm" d="M6.5,243.63a2.22,2.22,0,1,0,2.21,2.23A2.21,2.21,0,0,0,6.5,243.63Z" transform="translate(61.43 96.74)"/><path class="cn" d="M136.52,104a1.35,1.35,0,1,0,1.33,1.35A1.35,1.35,0,0,0,136.52,104Z" transform="translate(61.43 96.74)"/><path class="co" d="M215.24,158.49a3.06,3.06,0,1,0,3,3.08A3.06,3.06,0,0,0,215.24,158.49Z" transform="translate(61.43 96.74)"/><path class="cp" d="M155.62,170a1.53,1.53,0,1,0-1.51-1.53A1.52,1.52,0,0,0,155.62,170Z" transform="translate(61.43 96.74)"/><path class="cq" d="M158.05,178.38a1.72,1.72,0,1,0,1.72,1.73A1.71,1.71,0,0,0,158.05,178.38Z" transform="translate(61.43 96.74)"/><path class="cr" d="M185.41,199.36a1.35,1.35,0,1,0,1.34,1.36A1.35,1.35,0,0,0,185.41,199.36Z" transform="translate(61.43 96.74)"/><path class="cs" d="M314.41,199a2.35,2.35,0,1,0,2.33,2.36A2.35,2.35,0,0,0,314.41,199Z" transform="translate(61.43 96.74)"/><path class="ct" d="M340.84,98.79a2.7,2.7,0,1,0,2.69,2.71A2.69,2.69,0,0,0,340.84,98.79Z" transform="translate(61.43 96.74)"/><path class="cu" d="M20.27,267.42a2.93,2.93,0,1,0,2.91,2.94A2.91,2.91,0,0,0,20.27,267.42Z" transform="translate(61.43 96.74)"/><path class="cv" d="M49.26,237.7a1.69,1.69,0,1,0-1.69,1.67A1.68,1.68,0,0,0,49.26,237.7Z" transform="translate(61.43 96.74)"/><path class="cw" d="M86,321.07a2.65,2.65,0,1,0,2.64,2.66A2.65,2.65,0,0,0,86,321.07Z" transform="translate(61.43 96.74)"/><path class="cx" d="M101.6,234.73a2.77,2.77,0,1,0,2.75,2.78A2.75,2.75,0,0,0,101.6,234.73Z" transform="translate(61.43 96.74)"/><path class="cy" d="M181.33,272.24a2.42,2.42,0,1,0,2.41,2.43A2.41,2.41,0,0,0,181.33,272.24Z" transform="translate(61.43 96.74)"/><path class="cz" d="M114.68,210.9a1.78,1.78,0,1,0,1.76,1.78A1.78,1.78,0,0,0,114.68,210.9Z" transform="translate(61.43 96.74)"/><path class="da" d="M149.43,53.49a2.12,2.12,0,1,0,2.11,2.13A2.13,2.13,0,0,0,149.43,53.49Z" transform="translate(61.43 96.74)"/><path class="db" d="M203.66,70.37A1.57,1.57,0,1,0,205.22,72,1.56,1.56,0,0,0,203.66,70.37Z" transform="translate(61.43 96.74)"/><path class="dc" d="M209.3-68.47A2.51,2.51,0,0,0,206.79-66a2.51,2.51,0,0,0,2.49,2.52,2.5,2.5,0,0,0,2.51-2.49A2.5,2.5,0,0,0,209.3-68.47Z" transform="translate(61.43 96.74)"/><path class="dd" d="M203.59,22.76a3.39,3.39,0,1,0-3.37-3.41A3.39,3.39,0,0,0,203.59,22.76Z" transform="translate(61.43 96.74)"/><path class="de" d="M257.48,46.06a1.73,1.73,0,0,0,0,3.46,1.73,1.73,0,1,0,0-3.46Z" transform="translate(61.43 96.74)"/><path class="df" d="M231.79-60.79a1.92,1.92,0,0,0-1.93,1.91,1.92,1.92,0,0,0,1.91,1.93,1.92,1.92,0,0,0,1.94-1.91A1.92,1.92,0,0,0,231.79-60.79Z" transform="translate(61.43 96.74)"/><path class="dg" d="M343.17,307.41a1.8,1.8,0,1,0,1.79,1.81A1.8,1.8,0,0,0,343.17,307.41Z" transform="translate(61.43 96.74)"/><circle class="dh" cx="428.76" cy="327.68" r="2.24"/></svg>