<svg id="Layer_1" data-name="Layer 1" xmlns="http://www.w3.org/2000/svg" viewBox="0 0 549.7 141.51"><defs><style>.cls-1{fill:#a5a8ac;}.cls-2{fill:#f2f2f3;}.cls-3{fill:#1463a0;}.cls-4{fill:#299bd9;}</style></defs><title>logo</title><path class="cls-1" d="M227.2,393a9.46,9.46,0,0,0,2.28-1.34l24.75-20.74a7.92,7.92,0,0,0,2.1-2.95,11.56,11.56,0,0,0,.75-4.48V338.36c0-3.3-.72-5.55-2.18-6.75s-3.78-1.56-6.94-1.06L175.23,351.3a75.56,75.56,0,0,0-9.34,3.43,33,33,0,0,0-7.23,4.39L134.1,379.86a22.87,22.87,0,0,0-6.66,9.23q-2.28,5.64-2.29,14.38v13.71q0,14.85,6.48,21.33t19,10.09l72.73,20.74a10.3,10.3,0,0,0,4,0,6.25,6.25,0,0,0,2.66-1.14l24.57-20.75a6.49,6.49,0,0,0,1.8-2.57,10.91,10.91,0,0,0,.66-4.09V415.66c0-3.05-.66-5.3-2-6.77s-3.45-2.44-6.37-2.94l-34.83-9.34L224.34,394A18.8,18.8,0,0,0,227.2,393Zm-36.08-.95a4.47,4.47,0,0,0,2.57,1.13l54.64,14.67a8.57,8.57,0,0,1,5.23,2.38,7.92,7.92,0,0,1,1.63,5.43v25.13c0,2.4-.55,4.12-1.63,5.14s-2.83,1.26-5.23.76L175.8,425.94q-11.82-3.44-18-9.43t-6.19-20.08V382.72q0-14.09,6.19-20.09t18-9.42l72.53-20.75c2.4-.5,4.16-.26,5.23.76s1.63,2.73,1.63,5.14v25.13a7.92,7.92,0,0,1-1.63,5.43,8.51,8.51,0,0,1-5.23,2.37L193.69,386a4.67,4.67,0,0,0-2.57,1.14,4.92,4.92,0,0,0,0,5Z" transform="translate(-125.15 -329.24)"/><path class="cls-2" d="M191.12,387.09a4.92,4.92,0,0,0,0,5,4.47,4.47,0,0,0,2.57,1.13l54.64,14.67a8.57,8.57,0,0,1,5.23,2.38,7.92,7.92,0,0,1,1.63,5.43v25.13c0,2.4-.55,4.12-1.63,5.14s-2.83,1.26-5.23.76L175.8,425.94q-11.82-3.44-18-9.43t-6.19-20.08V382.72q0-14.09,6.19-20.09t18-9.42l72.53-20.75c2.4-.5,4.16-.26,5.23.76s1.63,2.73,1.63,5.14v25.13a7.92,7.92,0,0,1-1.63,5.43,8.51,8.51,0,0,1-5.23,2.37L193.69,386A4.67,4.67,0,0,0,191.12,387.09Z" transform="translate(-125.15 -329.24)"/><path class="cls-1" d="M516.07,330.83a7.14,7.14,0,0,0-5.09-1.59H491a8.59,8.59,0,0,0-2.48.34,5.3,5.3,0,0,0-1.78.9L469,345.33a5.2,5.2,0,0,0-1.44,2.06,10.45,10.45,0,0,0-.62,3L450.46,464.29c-.27,2.21.15,3.83,1.24,4.88a7.15,7.15,0,0,0,5.09,1.59h19.94a7.23,7.23,0,0,0,2.34-.34,7.9,7.9,0,0,0,1.79-.9l17.75-15a3.44,3.44,0,0,0,1.44-1.86,16.87,16.87,0,0,0,.75-3.09l16.5-113.87C517.57,333.5,517.17,331.88,516.07,330.83Zm-.14,4.74L499.42,449.44a6.89,6.89,0,0,1-1.29,3.78c-.69.78-1.91,1.17-3.65,1.17H474.54a5.75,5.75,0,0,1-3.93-1.17c-.87-.78-1.22-2-1-3.78l16.5-113.87a6.73,6.73,0,0,1,1.3-3.78c.69-.78,1.91-1.17,3.65-1.17H511a5.72,5.72,0,0,1,3.92,1.17C515.77,332.57,516.11,333.83,515.93,335.57Z" transform="translate(-125.15 -329.24)"/><path class="cls-2" d="M515.93,335.57,499.42,449.44a6.89,6.89,0,0,1-1.29,3.78c-.69.78-1.91,1.17-3.65,1.17H474.54a5.75,5.75,0,0,1-3.93-1.17c-.87-.78-1.22-2-1-3.78l16.5-113.87a6.73,6.73,0,0,1,1.3-3.78c.69-.78,1.91-1.17,3.65-1.17H511a5.72,5.72,0,0,1,3.92,1.17C515.77,332.57,516.11,333.83,515.93,335.57Z" transform="translate(-125.15 -329.24)"/><path class="cls-3" d="M424.86,331.07c-1.22-1.22-3.17-1.83-5.83-1.83H394.2a10.82,10.82,0,0,0-3.17.42,6.3,6.3,0,0,0-2.17,1.09l-21.67,18.16-.17.17a5.08,5.08,0,0,0-1.5,2.34,11.77,11.77,0,0,0-.5,3.66v15.33h-2.33a16.45,16.45,0,0,0-4.25.51,7.76,7.76,0,0,0-3.26,1.66l-9.32,7.84v-43.5c0-2.68-.62-4.61-1.84-5.85s-3.17-1.83-5.83-1.83H312.52a11.2,11.2,0,0,0-3.09.42,6.3,6.3,0,0,0-2.25,1.09l-21.5,18.16a6.26,6.26,0,0,0-1.75,2.51,10.11,10.11,0,0,0-.58,3.66v64.34q0,5.49.41,10.25a41.7,41.7,0,0,0,2.76,10.91l8.33,23a11,11,0,0,0,3.34,5.17,8.12,8.12,0,0,0,5.49,2h22a8.65,8.65,0,0,0,3.16-.59,11.75,11.75,0,0,0,2.66-1.41l19.18-16L354,464.59a7.94,7.94,0,0,0,3.49,4.66,11,11,0,0,0,5.84,1.51h22.16a6.85,6.85,0,0,0,2.68-.5,7,7,0,0,0,2.15-1.5l21.52-17.84a15.6,15.6,0,0,0,2-2.49,12.75,12.75,0,0,0,1.32-3l8.34-22.68a42,42,0,0,0,2.75-10.91q.41-4.75.41-10.26V336.92C426.69,334.24,426.08,332.31,424.86,331.07Zm.17,70.51q0,5.34-.41,9.92A46.66,46.66,0,0,1,422,422.25l-8.33,22.67a12,12,0,0,1-2.42,4.25,5.46,5.46,0,0,1-4.26,1.75H384.86a10,10,0,0,1-4.84-1.17,5.64,5.64,0,0,1-2.83-3.83l-7.66-27.17a4.42,4.42,0,0,0-1.26-2.25,2.73,2.73,0,0,0-1.74-.58H365a2.79,2.79,0,0,0-1.75.58,4.57,4.57,0,0,0-1.25,2.25l-7.84,27.17a6.29,6.29,0,0,1-2.49,3.75,7.84,7.84,0,0,1-4.5,1.25h-22a6.81,6.81,0,0,1-4.58-1.66,9.16,9.16,0,0,1-2.74-4.34l-8.34-23a45,45,0,0,1-2.58-10.75c-.29-3.06-.42-6.37-.42-9.92V336.92q0-3.18,1.42-4.59t4.58-1.43h25.67q3.15,0,4.58,1.43t1.42,4.59v61.33l9.67-21a8.37,8.37,0,0,1,3.49-4,11.37,11.37,0,0,1,5.34-1.15h7a11.34,11.34,0,0,1,5.34,1.15,8.5,8.5,0,0,1,3.51,4l9.67,21V336.92q0-3.18,1.41-4.59t4.59-1.43H419q3.17,0,4.59,1.43c.93.94,1.41,2.47,1.41,4.59Z" transform="translate(-125.15 -329.24)"/><path class="cls-4" d="M425,336.92v64.66q0,5.34-.41,9.92A46.66,46.66,0,0,1,422,422.25l-8.33,22.67a12,12,0,0,1-2.42,4.25,5.46,5.46,0,0,1-4.26,1.75H384.86a10,10,0,0,1-4.84-1.17,5.64,5.64,0,0,1-2.83-3.83l-7.66-27.17a4.42,4.42,0,0,0-1.26-2.25,2.73,2.73,0,0,0-1.74-.58H365a2.79,2.79,0,0,0-1.75.58,4.57,4.57,0,0,0-1.25,2.25l-7.84,27.17a6.29,6.29,0,0,1-2.49,3.75,7.84,7.84,0,0,1-4.5,1.25h-22a6.81,6.81,0,0,1-4.58-1.66,9.16,9.16,0,0,1-2.74-4.34l-8.34-23a45,45,0,0,1-2.58-10.75c-.29-3.06-.42-6.37-.42-9.92V336.92q0-3.18,1.42-4.59t4.58-1.43h25.67q3.15,0,4.58,1.43t1.42,4.59v61.33l9.67-21a8.37,8.37,0,0,1,3.49-4,11.37,11.37,0,0,1,5.34-1.15h7a11.34,11.34,0,0,1,5.34,1.15,8.5,8.5,0,0,1,3.51,4l9.67,21V336.92q0-3.18,1.41-4.59t4.59-1.43H419q3.17,0,4.59,1.43C424.55,333.27,425,334.8,425,336.92Z" transform="translate(-125.15 -329.24)"/><path class="cls-1" d="M668.37,361.4q-6.47-6.48-19-10.1L576.8,330.55h-.19a10.3,10.3,0,0,0-4,0A6.51,6.51,0,0,0,570,331.7L545.2,352.26a5.67,5.67,0,0,0-1.71,2.66,13.2,13.2,0,0,0-.57,4.2v25.12c0,3.05.66,5.31,2,6.76s3.45,2.44,6.37,2.95l34.83,9.33L575.66,406a19,19,0,0,0-3,.94,10.46,10.46,0,0,0-2.29,1.34L545.77,428.8a9.62,9.62,0,0,0-2.1,3.14,11.52,11.52,0,0,0-.75,4.46v25.14c0,3.3.72,5.56,2.18,6.76s3.78,1.55,6.94,1l72.73-20.74a99.93,99.93,0,0,0,9.43-3.52,27.54,27.54,0,0,0,6.95-4.29L665.9,420a24.59,24.59,0,0,0,6.57-9.23q2.38-5.61,2.38-14.37V382.72Q674.85,367.86,668.37,361.4Zm4.57,35q0,14.08-6.18,20.08t-18,9.43l-72.54,20.75c-2.41.5-4.15.26-5.23-.76s-1.62-2.74-1.62-5.14V415.66c0-2.42.53-4.22,1.62-5.43a8.57,8.57,0,0,1,5.23-2.38l54.63-14.67a4.61,4.61,0,0,0,2.59-1.13,5,5,0,0,0,0-5,4.82,4.82,0,0,0-2.59-1.14l-54.63-14.66a8.51,8.51,0,0,1-5.23-2.37c-1.09-1.21-1.62-3-1.62-5.43V338.36c0-2.41.53-4.12,1.62-5.14s2.82-1.26,5.23-.76l72.54,20.75q11.79,3.42,18,9.42t6.18,20.09Z" transform="translate(-125.15 -329.24)"/><path class="cls-2" d="M672.94,382.72v13.71q0,14.08-6.18,20.08t-18,9.43l-72.54,20.75c-2.41.5-4.15.26-5.23-.76s-1.62-2.74-1.62-5.14V415.66c0-2.42.53-4.22,1.62-5.43a8.57,8.57,0,0,1,5.23-2.38l54.63-14.67a4.61,4.61,0,0,0,2.59-1.13,5,5,0,0,0,0-5,4.82,4.82,0,0,0-2.59-1.14l-54.63-14.66a8.51,8.51,0,0,1-5.23-2.37c-1.09-1.21-1.62-3-1.62-5.43V338.36c0-2.41.53-4.12,1.62-5.14s2.82-1.26,5.23-.76l72.54,20.75q11.79,3.42,18,9.42T672.94,382.72Z" transform="translate(-125.15 -329.24)"/></svg>